<?xml version="1.0" encoding="UTF-8"?>
<svg width="16px" height="16px" viewBox="0 0 16 16" version="1.1" xmlns="http://www.w3.org/2000/svg" xmlns:xlink="http://www.w3.org/1999/xlink">
    <!-- Generator: Sketch 57 (83077) - https://sketch.com -->
    <title>close icon 2</title>
    <desc>Created with Sketch.</desc>
    <g id="Page-1" stroke="none" stroke-width="1" fill="none" fill-rule="evenodd">
        <g id="Menu" transform="translate(-283.000000, -24.000000)" fill="#313E5A">
            <g id="close-icon-2" transform="translate(283.000000, 24.000000)">
                <path d="M-1,7 L17,7 C17.5522847,7 18,7.44771525 18,8 C18,8.55228475 17.5522847,9 17,9 L-1,9 C-1.55228475,9 -2,8.55228475 -2,8 C-2,7.44771525 -1.55228475,7 -1,7 Z" id="Rectangle-Copy-4" transform="translate(8.000000, 8.000000) rotate(-45.000000) translate(-8.000000, -8.000000) "></path>
                <path d="M-1,7 L17,7 C17.5522847,7 18,7.44771525 18,8 C18,8.55228475 17.5522847,9 17,9 L-1,9 C-1.55228475,9 -2,8.55228475 -2,8 C-2,7.44771525 -1.55228475,7 -1,7 Z" id="Rectangle-Copy-4" transform="translate(8.000000, 8.000000) scale(-1, 1) rotate(-45.000000) translate(-8.000000, -8.000000) "></path>
            </g>
        </g>
    </g>
</svg>