<?xml version="1.0" encoding="UTF-8"?>
<svg width="22px" height="22px" viewBox="0 0 22 22" version="1.1" xmlns="http://www.w3.org/2000/svg" xmlns:xlink="http://www.w3.org/1999/xlink">
    <!-- Generator: Sketch 57 (83077) - https://sketch.com -->
    <title>Facebook</title>
    <desc>Created with Sketch.</desc>
    <g id="Page-1" stroke="none" stroke-width="1" fill="none" fill-rule="evenodd">
        <g id="Desktop-HD" transform="translate(-978.000000, -5441.000000)" fill="#3B589C" fill-rule="nonzero">
            <path d="M996.777344,5441 L981.222656,5441 C979.445831,5441 978,5442.44583 978,5444.22266 L978,5459.77734 C978,5461.55417 979.445831,5463 981.222656,5463 L987.710938,5463 L987.710938,5455.22266 L985.132812,5455.22266 L985.132812,5451.35547 L987.710938,5451.35547 L987.710938,5448.73438 C987.710938,5446.60188 989.445633,5444.86719 991.578125,5444.86719 L995.488281,5444.86719 L995.488281,5448.73438 L991.578125,5448.73438 L991.578125,5451.35547 L995.488281,5451.35547 L994.84375,5455.22266 L991.578125,5455.22266 L991.578125,5463 L996.777344,5463 C998.554169,5463 1000,5461.55417 1000,5459.77734 L1000,5444.22266 C1000,5442.44583 998.554169,5441 996.777344,5441 Z" id="Facebook"></path>
        </g>
    </g>
</svg>