<?xml version="1.0" encoding="UTF-8"?>
<svg width="42px" height="42px" viewBox="0 0 42 42" version="1.1" xmlns="http://www.w3.org/2000/svg" xmlns:xlink="http://www.w3.org/1999/xlink">
    <!-- Generator: Sketch 57 (83077) - https://sketch.com -->
    <title>Group 3</title>
    <desc>Created with Sketch.</desc>
    <g id="Page-1" stroke="none" stroke-width="1" fill="none" fill-rule="evenodd">
        <g id="Desktop-HD" transform="translate(-659.000000, -3009.000000)" stroke="#324063">
            <g id="Group-3" transform="translate(679.963816, 3030.000000) rotate(-180.000000) translate(-679.963816, -3030.000000) translate(660.000000, 3010.000000)">
                <ellipse id="Oval-Copy-2" transform="translate(19.963816, 20.000000) scale(-1, 1) translate(-19.963816, -20.000000) " cx="19.9638158" cy="20" rx="19.9638158" ry="20"></ellipse>
                <path d="M23.1869041,25.6829013 L17.6206462,20.0000002 L23.1869041,14.3170991 C23.2967595,14.2049417 23.2950544,14.0244389 23.1831121,13.9143964 C23.071674,13.8048497 22.8930568,13.8065431 22.7836962,13.9181954 L17.0220802,19.8005484 C16.9136926,19.9112073 16.9136926,20.0887931 17.0220802,20.1994521 L22.7836962,26.081805 C22.8930568,26.1934573 23.071674,26.1951508 23.1831121,26.085604 C23.2950544,25.9755615 23.2967595,25.7950587 23.1869041,25.6829013 Z" id="Shape-Copy-2" transform="translate(20.104492, 20.000000) scale(-1, 1) rotate(-360.000000) translate(-20.104492, -20.000000) "></path>
            </g>
        </g>
    </g>
</svg>