<?xml version="1.0" encoding="UTF-8"?>
<svg width="81px" height="80px" viewBox="0 0 81 80" version="1.1" xmlns="http://www.w3.org/2000/svg" xmlns:xlink="http://www.w3.org/1999/xlink">
    <!-- Generator: Sketch 57 (83077) - https://sketch.com -->
    <title>Group 4</title>
    <desc>Created with Sketch.</desc>
    <g id="Page-1" stroke="none" stroke-width="1" fill="none" fill-rule="evenodd">
        <g id="Desktop-HD" transform="translate(-680.000000, -3604.000000)">
            <g id="Group-4" transform="translate(680.000000, 3604.000000)">
                <g id="Group-39" fill="#6161E8" fill-rule="nonzero">
                    <g id="Group-6-Copy-3">
                        <g id="Shape-2-Copy">
                            <path d="M40.4,0 C18.0879953,0 0,17.9085937 0,40 C0,62.0914062 18.0879953,80 40.4,80 C62.7120047,80 80.8,62.0914062 80.8,40 C80.8,17.9085938 62.7120047,0 40.4,0 Z M54.36325,42.1203125 L34.16325,54.6203125 C33.7545156,54.8729688 33.2897578,55 32.825,55 C32.4039563,55 31.9822813,54.89625 31.6006906,54.68625 C30.7980563,54.245625 30.3,53.409375 30.3,52.5 L30.3,27.5 C30.3,26.590625 30.7980563,25.754375 31.6006906,25.31375 C32.403325,24.870625 33.3847609,24.8975 34.16325,25.3796875 L54.36325,37.8796875 C55.1011813,38.3375 55.55,39.1382813 55.55,40 C55.55,40.8617188 55.1011813,41.6626563 54.36325,42.1203125 Z" id="Shape"></path>
                        </g>
                    </g>
                </g>
                <path d="M54.498792,42.2621914 L33.167592,55.5950155 C32.7359685,55.8645052 32.2451843,56 31.7544,56 C31.3097778,56 30.864489,55.8893376 30.4615293,55.6653461 C29.6139474,55.1953641 29.088,54.3033981 29.088,53.3334352 L29.088,26.6677871 C29.088,25.6978242 29.6139474,24.8058582 30.4615293,24.3358762 C31.3091112,23.8632276 32.3455076,23.8918932 33.167592,24.4062068 L54.498792,37.7390309 C55.2780474,38.2273456 55.752,39.0814796 55.752,40.0006112 C55.752,40.9197427 55.2780474,41.7740434 54.498792,42.2621914 Z" id="Path" fill="#FFFFFF"></path>
            </g>
        </g>
    </g>
</svg>