<?xml version="1.0" encoding="UTF-8"?>
<svg width="33px" height="36px" viewBox="0 0 33 36" version="1.1" xmlns="http://www.w3.org/2000/svg" xmlns:xlink="http://www.w3.org/1999/xlink">
    <!-- Generator: Sketch 57 (83077) - https://sketch.com -->
    <title>Icon_TICKETS</title>
    <desc>Created with Sketch.</desc>
    <g id="Page-1" stroke="none" stroke-width="1" fill="none" fill-rule="evenodd">
        <g id="Desktop-HD" transform="translate(-224.000000, -1350.000000)">
            <g id="Icon_TICKETS" transform="translate(214.000000, 1341.000000)">
                <path d="M37.2717388,36.0978258 L15.9065217,36.0978258 L15.9065217,32.5369563 L37.2717388,32.5369563 L37.2717388,36.0978258 Z M37.2717388,28.9760867 L15.9065217,28.9760867 L15.9065217,25.4152172 L37.2717388,25.4152172 L37.2717388,28.9760867 Z M37.2717388,21.8543477 L15.9065217,21.8543477 L15.9065217,18.2934782 L37.2717388,18.2934782 L37.2717388,21.8543477 Z M10.5652174,44.9999996 L13.2358695,42.3293475 L15.9065217,44.9999996 L18.5771738,42.3293475 L21.247826,44.9999996 L23.9184781,42.3293475 L26.5891303,44.9999996 L29.2597824,42.3293475 L31.9304345,44.9999996 L34.6010867,42.3293475 L37.2717388,44.9999996 L39.942391,42.3293475 L42.6130431,44.9999996 L42.6130431,9.39130435 L39.942391,12.0619565 L37.2717388,9.39130435 L34.6010867,12.0619565 L31.9304345,9.39130435 L29.2597824,12.0619565 L26.5891303,9.39130435 L23.9184781,12.0619565 L21.247826,9.39130435 L18.5771738,12.0619565 L15.9065217,9.39130435 L13.2358695,12.0619565 L10.5652174,9.39130435 L10.5652174,44.9999996 Z" id="Shape" fill="#6161E8" fill-rule="nonzero"></path>
                <polygon id="Path" points="0 0 54 0 54 54 0 54"></polygon>
            </g>
        </g>
    </g>
</svg>