<?xml version="1.0" encoding="UTF-8"?>
<svg width="22px" height="22px" viewBox="0 0 22 22" version="1.1" xmlns="http://www.w3.org/2000/svg" xmlns:xlink="http://www.w3.org/1999/xlink">
    <!-- Generator: Sketch 57 (83077) - https://sketch.com -->
    <title>In</title>
    <desc>Created with Sketch.</desc>
    <g id="Page-1" stroke="none" stroke-width="1" fill="none" fill-rule="evenodd">
        <g id="Desktop-HD" transform="translate(-1229.000000, -5441.000000)" fill="#0077B5" fill-rule="nonzero">
            <path d="M1247.77734,5441 L1232.22266,5441 C1230.44583,5441 1229,5442.44583 1229,5444.22266 L1229,5459.77734 C1229,5461.55417 1230.44583,5463 1232.22266,5463 L1247.77734,5463 C1249.55417,5463 1251,5461.55417 1251,5459.77734 L1251,5444.22266 C1251,5442.44583 1249.55417,5441 1247.77734,5441 Z M1236.77734,5458.44531 L1234.19922,5458.44531 L1234.19922,5449.42188 L1236.77734,5449.42188 L1236.77734,5458.44531 Z M1236.77734,5448.13281 L1234.19922,5448.13281 L1234.19922,5445.55469 L1236.77734,5445.55469 L1236.77734,5448.13281 Z M1245.80078,5458.44531 L1243.22266,5458.44531 L1243.22266,5453.28906 C1243.22266,5452.5784 1242.64426,5452 1241.93359,5452 C1241.22293,5452 1240.64453,5452.5784 1240.64453,5453.28906 L1240.64453,5458.44531 L1238.06641,5458.44531 L1238.06641,5449.42188 L1240.64453,5449.42188 L1240.64453,5449.90779 C1241.31995,5449.69781 1241.7587,5449.42188 1242.57812,5449.42188 C1244.32658,5449.42372 1245.80078,5450.99225 1245.80078,5452.84595 L1245.80078,5458.44531 Z" id="In"></path>
        </g>
    </g>
</svg>