<?xml version="1.0" encoding="UTF-8"?>
<svg width="161px" height="44px" viewBox="0 0 161 44" version="1.1" xmlns="http://www.w3.org/2000/svg" xmlns:xlink="http://www.w3.org/1999/xlink">
    <!-- Generator: Sketch 57 (83077) - https://sketch.com -->
    <title>Logo_Fixed Header</title>
    <desc>Created with Sketch.</desc>
    <g id="Page-1" stroke="none" stroke-width="1" fill="none" fill-rule="evenodd">
        <g id="Desktop_header-fixed-" transform="translate(-186.000000, -16.000000)">
            <g id="Logo_Fixed-Header" transform="translate(186.000000, 16.000000)">
                <g id="Group-9" transform="translate(0.000000, 0.000000)">
                    <g id="Group-8">
                        <rect id="Rectangle" fill="#B5C5FF" x="0.297297297" y="0.297297297" width="13.0810811" height="27.9459459"></rect>
                        <rect id="Rectangle-Copy-14" fill="#6161E8" transform="translate(33.594595, 29.729730) rotate(-180.000000) translate(-33.594595, -29.729730) " x="27.0540541" y="15.7567568" width="13.0810811" height="27.9459459"></rect>
                        <rect id="Rectangle-Copy-13" fill="#6161E8" x="0.297297297" y="28.2432432" width="13.0810811" height="14.8648649"></rect>
                        <rect id="Rectangle-Copy-15" fill="#B5EDE9" transform="translate(33.594595, 8.324324) rotate(-180.000000) translate(-33.594595, -8.324324) " x="27.0540541" y="0.891891892" width="13.0810811" height="14.8648649"></rect>
                        <rect id="Rectangle" fill="#8FEEE7" x="13.3783784" y="14.5675676" width="13.6756757" height="13.6756757"></rect>
                    </g>
                </g>
                <path d="M61.992,28 L61.992,16.8 L65.096,16.8 L65.096,20.992 L69.08,20.992 L69.08,16.8 L72.184,16.8 L72.184,28 L69.08,28 L69.08,23.744 L65.096,23.744 L65.096,28 L61.992,28 Z M73.272,28 L78.04,16.72 L81.032,16.72 L85.8,28 L82.472,28 L81.656,26 L77.336,26 L76.536,28 L73.272,28 Z M78.248,23.584 L80.76,23.584 L79.512,20.4 L78.248,23.584 Z M86.888,28 L86.888,16.8 L92.184,16.8 C93.896,16.8 95.08,17.248 95.832,18.016 C96.488,18.656 96.824,19.52 96.824,20.624 L96.824,20.656 C96.824,22.368 95.912,23.504 94.52,24.096 L97.192,28 L93.608,28 L91.352,24.608 L89.992,24.608 L89.992,28 L86.888,28 Z M89.992,22.176 L92.04,22.176 C93.096,22.176 93.704,21.664 93.704,20.848 L93.704,20.816 C93.704,19.936 93.064,19.488 92.024,19.488 L89.992,19.488 L89.992,22.176 Z M98.392,28 L98.392,16.8 L102.712,16.8 C106.712,16.8 109.032,19.104 109.032,22.336 L109.032,22.368 C109.032,25.6 106.68,28 102.648,28 L98.392,28 Z M101.496,25.248 L102.76,25.248 C104.616,25.248 105.848,24.224 105.848,22.416 L105.848,22.384 C105.848,20.592 104.616,19.552 102.76,19.552 L101.496,19.552 L101.496,25.248 Z M110.632,28 L110.632,16.8 L115.928,16.8 C117.64,16.8 118.824,17.248 119.576,18.016 C120.232,18.656 120.568,19.52 120.568,20.624 L120.568,20.656 C120.568,22.368 119.656,23.504 118.264,24.096 L120.936,28 L117.352,28 L115.096,24.608 L113.736,24.608 L113.736,28 L110.632,28 Z M113.736,22.176 L115.784,22.176 C116.84,22.176 117.448,21.664 117.448,20.848 L117.448,20.816 C117.448,19.936 116.808,19.488 115.768,19.488 L113.736,19.488 L113.736,22.176 Z M122.2,28 L122.2,16.8 L125.32,16.8 L125.32,28 L122.2,28 Z M133.08,28.224 C129.592,28.224 126.984,25.824 126.984,22.432 L126.984,22.4 C126.984,19.136 129.544,16.576 133.016,16.576 C134.984,16.576 136.376,17.184 137.56,18.208 L135.736,20.4 C134.936,19.728 134.136,19.344 133.032,19.344 C131.416,19.344 130.168,20.704 130.168,22.416 L130.168,22.448 C130.168,24.256 131.432,25.552 133.208,25.552 C133.96,25.552 134.536,25.392 135,25.088 L135,23.728 L132.792,23.728 L132.792,21.456 L137.944,21.456 L137.944,26.496 C136.76,27.472 135.112,28.224 133.08,28.224 Z M142.248,28 L142.248,19.52 L138.888,19.52 L138.888,16.8 L148.712,16.8 L148.712,19.52 L145.352,19.52 L145.352,28 L142.248,28 Z M150.072,28 L150.072,16.8 L153.176,16.8 L153.176,20.992 L157.16,20.992 L157.16,16.8 L160.264,16.8 L160.264,28 L157.16,28 L157.16,23.744 L153.176,23.744 L153.176,28 L150.072,28 Z" id="HARDRIGTH" fill="#324063" fill-rule="nonzero"></path>
            </g>
        </g>
    </g>
</svg>