<?xml version="1.0" encoding="UTF-8"?>
<svg width="22px" height="22px" viewBox="0 0 22 22" version="1.1" xmlns="http://www.w3.org/2000/svg" xmlns:xlink="http://www.w3.org/1999/xlink">
    <!-- Generator: Sketch 57 (83077) - https://sketch.com -->
    <title>Pinteres</title>
    <desc>Created with Sketch.</desc>
    <g id="Page-1" stroke="none" stroke-width="1" fill="none" fill-rule="evenodd">
        <g id="Desktop-HD" transform="translate(-1172.000000, -5441.000000)" fill="#CB1F27" fill-rule="nonzero">
            <path d="M1192.7898,5442.21037 C1191.98324,5441.40367 1191.01154,5441.00025 1189.87528,5441.00025 L1189.87528,5441 L1176.12502,5441 C1174.98881,5441 1174.01711,5441.40352 1173.2102,5442.21022 C1172.40345,5443.01707 1172,5443.98871 1172,5445.12484 L1172,5458.87441 C1172,5460.01049 1172.40345,5460.98223 1173.2102,5461.78872 C1174.01711,5462.59557 1174.98886,5462.999 1176.12507,5462.999 L1178.74635,5462.999 C1178.58386,5461.52897 1178.61727,5460.31614 1178.84654,5459.36146 L1180.25014,5453.4321 C1180.02097,5452.96411 1179.90629,5452.38662 1179.90629,5451.69926 C1179.90629,5450.90686 1180.10922,5450.24073 1180.51518,5449.70136 C1180.92083,5449.16174 1181.41504,5448.892 1181.99749,5448.892 C1182.46536,5448.892 1182.82587,5449.04711 1183.07881,5449.35733 C1183.33171,5449.6678 1183.45839,5450.05687 1183.45839,5450.52476 C1183.45839,5450.82063 1183.40586,5451.1764 1183.30096,5451.59161 C1183.19571,5452.00722 1183.05513,5452.49407 1182.87844,5453.0527 C1182.7018,5453.61129 1182.57533,5454.05269 1182.49887,5454.37725 C1182.36527,5454.95033 1182.47499,5455.44425 1182.82832,5455.85987 C1183.18161,5456.27493 1183.64466,5456.48301 1184.21778,5456.48301 C1185.23002,5456.48301 1186.05825,5455.91961 1186.70306,5454.79277 C1187.34756,5453.66627 1187.66964,5452.30079 1187.66964,5450.69687 C1187.66964,5449.46528 1187.27101,5448.46254 1186.47334,5447.68925 C1185.67637,5446.91581 1184.5663,5446.52905 1183.14338,5446.52905 C1181.54904,5446.52905 1180.25741,5447.03761 1179.269,5448.0544 C1178.28064,5449.07129 1177.78643,5450.29596 1177.78643,5451.72811 C1177.78643,5452.56826 1178.02528,5453.28447 1178.50268,5453.87656 C1178.66493,5454.05785 1178.71755,5454.25856 1178.66021,5454.47828 C1178.6124,5454.64067 1178.54081,5454.93182 1178.44534,5455.35175 C1178.40706,5455.48564 1178.33793,5455.57614 1178.2376,5455.62404 C1178.13716,5455.67175 1178.02503,5455.67175 1177.90092,5455.62404 C1177.16571,5455.31864 1176.60924,5454.79317 1176.23218,5454.04842 C1175.85506,5453.30388 1175.66648,5452.44431 1175.66648,5451.47061 C1175.66648,5450.84034 1175.76918,5450.20752 1175.97451,5449.57283 C1176.17985,5448.93775 1176.49737,5448.32669 1176.92701,5447.73957 C1177.35664,5447.15219 1177.86976,5446.62947 1178.46666,5446.17107 C1179.06336,5445.71297 1179.79401,5445.34772 1180.6581,5445.07558 C1181.5221,5444.80348 1182.45091,5444.66739 1183.44364,5444.66739 C1184.45608,5444.66739 1185.39653,5444.84196 1186.26559,5445.1904 C1187.13445,5445.5388 1187.86259,5446.00182 1188.45011,5446.57946 C1189.03722,5447.15716 1189.49807,5447.82073 1189.83199,5448.57034 C1190.16641,5449.3197 1190.33347,5450.09565 1190.33347,5450.89758 C1190.33347,5453.05561 1189.78684,5454.83872 1188.69357,5456.24699 C1187.60026,5457.65536 1186.18938,5458.35972 1184.46125,5458.35972 C1183.88782,5458.35972 1183.35113,5458.22598 1182.84965,5457.95871 C1182.34842,5457.69143 1181.99749,5457.37158 1181.79692,5456.99906 C1181.37681,5458.67014 1181.12381,5459.66766 1181.03783,5459.99233 C1180.81824,5460.83264 1180.30261,5461.83503 1179.49099,5463 L1189.87513,5463 C1191.01129,5463 1191.98304,5462.59658 1192.78965,5461.78973 C1193.59655,5460.98288 1194,5460.01119 1194,5458.87506 L1194,5445.12494 C1194,5443.98891 1193.59655,5443.01722 1192.7898,5442.21037 Z" id="Pinteres"></path>
        </g>
    </g>
</svg>