<?xml version="1.0" encoding="UTF-8"?>
<svg width="22px" height="18px" viewBox="0 0 22 18" version="1.1" xmlns="http://www.w3.org/2000/svg" xmlns:xlink="http://www.w3.org/1999/xlink">
    <!-- Generator: Sketch 57 (83077) - https://sketch.com -->
    <title>twitter</title>
    <desc>Created with Sketch.</desc>
    <g id="Page-1" stroke="none" stroke-width="1" fill="none" fill-rule="evenodd">
        <g id="Desktop-HD" transform="translate(-1039.000000, -5443.000000)" fill="#1DA1F3" fill-rule="nonzero">
            <path d="M1047.20747,5461 C1046.25612,5461 1045.27691,5460.92298 1044.29183,5460.76861 C1042.55681,5460.49645 1040.80048,5459.58919 1040.30349,5459.31754 L1039,5458.60509 L1040.41124,5458.14114 C1041.95391,5457.63407 1042.89233,5457.31945 1044.05399,5456.82681 C1042.89082,5456.2637 1041.99436,5455.25073 1041.56283,5453.94127 L1041.23453,5452.94492 L1041.50375,5452.98602 C1041.24846,5452.7288 1041.04687,5452.46771 1040.89061,5452.23028 C1040.33487,5451.38645 1040.04064,5450.35536 1040.10325,5449.47176 L1040.16501,5448.60209 L1040.68584,5448.80378 C1040.46613,5448.38899 1040.30735,5447.94602 1040.21403,5447.48173 C1039.9866,5446.34946 1040.17693,5445.14655 1040.75012,5444.09466 L1041.20381,5443.26207 L1041.81057,5443.99063 C1043.72955,5446.2951 1046.16012,5447.66211 1049.04488,5448.0623 C1048.92705,5447.25035 1049.01533,5446.46675 1049.30755,5445.76437 C1049.64778,5444.94655 1050.25303,5444.25306 1051.05734,5443.75874 C1051.95062,5443.20988 1053.03389,5442.94393 1054.1076,5443.00987 C1055.24676,5443.07984 1056.28103,5443.50654 1057.10246,5444.24467 C1057.50361,5444.14047 1057.79919,5444.02922 1058.19866,5443.87888 C1058.43901,5443.78844 1058.7116,5443.68575 1059.05266,5443.56829 L1060.30948,5443.13538 L1059.48989,5445.47543 C1059.54394,5445.4709 1059.59967,5445.46704 1059.65791,5445.46452 L1061,5445.40378 L1060.20676,5446.48756 C1060.16128,5446.54964 1060.1497,5446.56726 1060.13358,5446.59159 C1060.06963,5446.6879 1059.99007,5446.80771 1058.90126,5448.26113 C1058.62868,5448.62508 1058.49256,5449.09909 1058.5179,5449.5961 C1058.61441,5451.48478 1058.38262,5453.19359 1057.82856,5454.67486 C1057.30455,5456.07627 1056.49251,5457.27868 1055.41528,5458.24869 C1054.08225,5459.44875 1052.38248,5460.27043 1050.36297,5460.69059 C1049.37234,5460.89664 1048.30854,5461 1047.20747,5461 Z" id="twitter"></path>
        </g>
    </g>
</svg>