<?xml version="1.0" encoding="UTF-8"?>
<svg width="26px" height="18px" viewBox="0 0 26 18" version="1.1" xmlns="http://www.w3.org/2000/svg" xmlns:xlink="http://www.w3.org/1999/xlink">
    <!-- Generator: Sketch 57 (83077) - https://sketch.com -->
    <title>Youtube</title>
    <desc>Created with Sketch.</desc>
    <g id="Page-1" stroke="none" stroke-width="1" fill="none" fill-rule="evenodd">
        <g id="Desktop-HD" transform="translate(-1100.000000, -5443.000000)" fill="#FF2500" fill-rule="nonzero">
            <path d="M1120.60013,5443 L1105.39987,5443 C1102.4176,5443 1100,5445.36527 1100,5448.28298 L1100,5455.71702 C1100,5458.63473 1102.4176,5461 1105.39987,5461 L1120.60013,5461 C1123.5824,5461 1126,5458.63473 1126,5455.71702 L1126,5448.28298 C1126,5445.36527 1123.5824,5443 1120.60013,5443 Z M1116.94824,5452.36169 L1109.83858,5455.67917 C1109.64914,5455.76757 1109.43031,5455.63243 1109.43031,5455.42712 L1109.43031,5448.5848 C1109.43031,5448.37656 1109.65489,5448.24159 1109.84473,5448.33573 L1116.95439,5451.86056 C1117.16577,5451.96535 1117.16211,5452.26193 1116.94824,5452.36169 Z" id="Youtube"></path>
        </g>
    </g>
</svg>